<svg xmlns="http://www.w3.org/2000/svg" width="1600" height="1100" viewBox="0 0 1600 1100">
<rect width="100%" height="100%" fill="#F7F3E8"/>
<style>
.t{font-family:Arial,Helvetica,sans-serif;fill:#252525;font-size:26px}
.small{font-family:Arial,Helvetica,sans-serif;fill:#252525;font-size:20px}
.label{font-family:Arial,Helvetica,sans-serif;fill:#252525;font-size:18px}
.head{font-family:Arial,Helvetica,sans-serif;fill:white;font-size:30px;font-weight:bold}
.dim{font-family:Arial,Helvetica,sans-serif;fill:#8A4B2F;font-size:18px;font-weight:bold}
</style>
<defs>
<marker id="arrow" markerWidth="10" markerHeight="10" refX="5" refY="5" orient="auto" markerUnits="strokeWidth"><path d="M0,0 L10,5 L0,10 z" fill="#8A4B2F"/></marker>
</defs>
<rect x="0" y="0" width="1600" height="70" fill="#1F3B24"/>
<text x="50" y="45" class="head" text-anchor="start">TOP VIEW - 10 ft x 10 ft MOBILE CHICKEN COOP</text><rect x="310" y="160" width="720.0" height="720.0" fill="#FFFFFF" stroke="#1F3B24" stroke-width="5"/><rect x="382.0" y="160" width="48.0" height="720.0" fill="#D8B17A" stroke="#8A4B2F" stroke-width="2"/><rect x="910.0" y="160" width="48.0" height="720.0" fill="#D8B17A" stroke="#8A4B2F" stroke-width="2"/><rect x="310" y="160" width="720.0" height="288.0" fill="#F1D6A8" stroke="#8A4B2F" stroke-width="4"/><rect x="310" y="448.0" width="720.0" height="432.0" fill="#F9FBF5" stroke="#7D8178" stroke-width="2"/><rect x="302" y="152" width="16" height="16" fill="#1F3B24" stroke="#252525" stroke-width="2"/><rect x="302" y="440.0" width="16" height="16" fill="#1F3B24" stroke="#252525" stroke-width="2"/><rect x="302" y="872.0" width="16" height="16" fill="#1F3B24" stroke="#252525" stroke-width="2"/><rect x="662.0" y="152" width="16" height="16" fill="#1F3B24" stroke="#252525" stroke-width="2"/><rect x="662.0" y="440.0" width="16" height="16" fill="#1F3B24" stroke="#252525" stroke-width="2"/><rect x="662.0" y="872.0" width="16" height="16" fill="#1F3B24" stroke="#252525" stroke-width="2"/><rect x="1022.0" y="152" width="16" height="16" fill="#1F3B24" stroke="#252525" stroke-width="2"/><rect x="1022.0" y="440.0" width="16" height="16" fill="#1F3B24" stroke="#252525" stroke-width="2"/><rect x="1022.0" y="872.0" width="16" height="16" fill="#1F3B24" stroke="#252525" stroke-width="2"/><circle cx="1060" cy="420" r="42" fill="#222"/><circle cx="1060" cy="420" r="22" fill="#666"/><circle cx="1060" cy="610" r="42" fill="#222"/><circle cx="1060" cy="610" r="22" fill="#666"/><line x1="670.0" y1="880.0" x2="670.0" y2="1020.0" stroke="#8A4B2F" stroke-width="10"/><text x="670.0" y="1056.0" class="small" text-anchor="middle">tow tongue end</text><text x="670.0" y="240" class="t" text-anchor="middle">UPPER COOP HOUSE - 4 ft x 10 ft</text><text x="670.0" y="638.0" class="t" text-anchor="middle">LOWER RUN / PASTURE AREA</text><text x="1135.0" y="240" class="small" text-anchor="start">wheel/axle side</text><text x="335" y="850.0" class="small" text-anchor="start">front / tow end</text><line x1="310" y1="940.0" x2="1030.0" y2="940.0" stroke="#8A4B2F" stroke-width="3" marker-start="url(#arrow)" marker-end="url(#arrow)"/><text x="670.0" y="975.0" class="dim" text-anchor="middle">120 in / 10 ft outside width</text><line x1="230" y1="160" x2="230" y2="880.0" stroke="#8A4B2F" stroke-width="3" marker-start="url(#arrow)" marker-end="url(#arrow)"/><text x="200" y="520.0" class="dim" text-anchor="middle">120 in / 10 ft length</text><line x1="1100.0" y1="160" x2="1100.0" y2="448.0" stroke="#8A4B2F" stroke-width="3" marker-start="url(#arrow)" marker-end="url(#arrow)"/><text x="1120.0" y="304.0" class="dim" text-anchor="start">48 in coop depth</text><line x1="1100.0" y1="448.0" x2="1100.0" y2="880.0" stroke="#8A4B2F" stroke-width="3" marker-start="url(#arrow)" marker-end="url(#arrow)"/><text x="1120.0" y="664.0" class="dim" text-anchor="start">72 in open run zone</text></svg>