<svg xmlns="http://www.w3.org/2000/svg" width="1600" height="1100" viewBox="0 0 1600 1100">
<rect width="100%" height="100%" fill="#F7F3E8"/>
<style>
.t{font-family:Arial,Helvetica,sans-serif;fill:#252525;font-size:26px}
.small{font-family:Arial,Helvetica,sans-serif;fill:#252525;font-size:20px}
.label{font-family:Arial,Helvetica,sans-serif;fill:#252525;font-size:18px}
.head{font-family:Arial,Helvetica,sans-serif;fill:white;font-size:30px;font-weight:bold}
.dim{font-family:Arial,Helvetica,sans-serif;fill:#8A4B2F;font-size:18px;font-weight:bold}
</style>
<defs>
<marker id="arrow" markerWidth="10" markerHeight="10" refX="5" refY="5" orient="auto" markerUnits="strokeWidth"><path d="M0,0 L10,5 L0,10 z" fill="#8A4B2F"/></marker>
</defs>
<rect x="0" y="0" width="1600" height="70" fill="#1F3B24"/>
<text x="50" y="45" class="head" text-anchor="start">SIDE ELEVATION - 48 in LOWER RUN MOBILE VERSION</text><line x1="110" y1="845" x2="1450" y2="845" stroke="#7D8178" stroke-width="3"/><rect x="200" y="800" width="864.0" height="28" fill="#D8B17A" stroke="#8A4B2F" stroke-width="3"/><rect x="192.0" y="454.4" width="16" height="345.6" fill="#C89B61" stroke="#8A4B2F" stroke-width="2"/><rect x="480.0" y="454.4" width="16" height="345.6" fill="#C89B61" stroke="#8A4B2F" stroke-width="2"/><rect x="710.4" y="454.4" width="16" height="345.6" fill="#C89B61" stroke="#8A4B2F" stroke-width="2"/><rect x="1056.0" y="454.4" width="16" height="345.6" fill="#C89B61" stroke="#8A4B2F" stroke-width="2"/><rect x="200" y="454.4" width="864.0" height="18" fill="#D8B17A" stroke="#8A4B2F" stroke-width="2"/><rect x="718.4" y="438.4" width="345.6" height="22" fill="#C89B61" stroke="#8A4B2F" stroke-width="2"/><rect x="710.4" y="108.79999999999995" width="16" height="345.6" fill="#C89B61" stroke="#8A4B2F" stroke-width="2"/><rect x="1056.0" y="166.39999999999998" width="16" height="288.0" fill="#C89B61" stroke="#8A4B2F" stroke-width="2"/><rect x="718.4" y="108.79999999999995" width="345.6" height="345.6" fill="none" stroke="#1F3B24" stroke-width="4"/><line x1="688.4" y1="73.79999999999995" x2="1099.0" y2="131.39999999999998" stroke="#1F3B24" stroke-width="8"/><polygon points="678.4,48.799999999999955 1114.0,106.39999999999998 1109.0,131.39999999999998 683.4,73.79999999999995" fill="#E6E6E6" stroke="#252525" stroke-width="2"/><line x1="748.4" y1="458.4" x2="593.4" y2="798" stroke="#8A4B2F" stroke-width="6"/><text x="488.4" y="670" class="small" text-anchor="start">hinged ramp to lower run</text><circle cx="1040" cy="820" r="70" fill="#222"/><circle cx="1040" cy="820" r="38" fill="#666"/><circle cx="1040" cy="820" r="8" fill="#CCC"/><text x="1105" y="830" class="small" text-anchor="start">20 in pneumatic wheel, 600 lb+ rating</text><line x1="200" y1="814" x2="50" y2="885" stroke="#8A4B2F" stroke-width="10"/><text x="40" y="915" class="small" text-anchor="start">tow tongue</text><rect x="220" y="484.4" width="240" height="275.6" fill="#F9FBF5" stroke="#7D8178" stroke-width="2"/><text x="230" y="524.4" class="small" text-anchor="start">hardware cloth run wall</text><line x1="200" y1="920" x2="1064.0" y2="920" stroke="#8A4B2F" stroke-width="3" marker-start="url(#arrow)" marker-end="url(#arrow)"/><text x="632.0" y="960" class="dim" text-anchor="middle">120 in / 10 ft base length</text><line x1="130" y1="800" x2="130" y2="454.4" stroke="#8A4B2F" stroke-width="3" marker-start="url(#arrow)" marker-end="url(#arrow)"/><text x="100" y="627.2" class="dim" text-anchor="middle">48 in lower run height</text><line x1="638.4" y1="454.4" x2="638.4" y2="108.79999999999995" stroke="#8A4B2F" stroke-width="3" marker-start="url(#arrow)" marker-end="url(#arrow)"/><text x="598.4" y="281.59999999999997" class="dim" text-anchor="middle">48 in high wall</text><line x1="1154.0" y1="454.4" x2="1154.0" y2="166.39999999999998" stroke="#8A4B2F" stroke-width="3" marker-start="url(#arrow)" marker-end="url(#arrow)"/><text x="1184.0" y="310.4" class="dim" text-anchor="middle">40 in low wall</text></svg>